<svg xmlns="http://www.w3.org/2000/svg" width="800" height="310" viewBox="0 0 800 310" role="img" aria-label="yut0takagi — Obsidian plugins"><style>:root{color-scheme:light dark}.bg{fill:#ffffff}.fg{fill:#1f2328}.mut{fill:#59636e}.grid{stroke:#d1d9e0}@media(prefers-color-scheme:dark){.bg{fill:#0d1117}.fg{fill:#e6edf3}.mut{fill:#9198a1}.grid{stroke:#30363d}}</style><rect class="bg" width="800" height="310" rx="6"/><text class="fg" x="56" y="26" font-family="-apple-system,BlinkMacSystemFont,'Segoe UI',Helvetica,Arial,sans-serif" font-size="14" font-weight="600">yut0takagi — Obsidian plugins</text><line class="grid" x1="56" y1="242.0" x2="736" y2="242.0" stroke-width="1" stroke-dasharray="3 3"/><text class="mut" x="48" y="246.0" font-family="-apple-system,BlinkMacSystemFont,'Segoe UI',Helvetica,Arial,sans-serif" font-size="11" text-anchor="end">0</text><line class="grid" x1="56" y1="194.5" x2="736" y2="194.5" stroke-width="1" stroke-dasharray="3 3"/><text class="mut" x="48" y="198.5" font-family="-apple-system,BlinkMacSystemFont,'Segoe UI',Helvetica,Arial,sans-serif" font-size="11" text-anchor="end">250</text><line class="grid" x1="56" y1="147.0" x2="736" y2="147.0" stroke-width="1" stroke-dasharray="3 3"/><text class="mut" x="48" y="151.0" font-family="-apple-system,BlinkMacSystemFont,'Segoe UI',Helvetica,Arial,sans-serif" font-size="11" text-anchor="end">500</text><line class="grid" x1="56" y1="99.5" x2="736" y2="99.5" stroke-width="1" stroke-dasharray="3 3"/><text class="mut" x="48" y="103.5" font-family="-apple-system,BlinkMacSystemFont,'Segoe UI',Helvetica,Arial,sans-serif" font-size="11" text-anchor="end">750</text><line class="grid" x1="56" y1="52.0" x2="736" y2="52.0" stroke-width="1" stroke-dasharray="3 3"/><text class="mut" x="48" y="56.0" font-family="-apple-system,BlinkMacSystemFont,'Segoe UI',Helvetica,Arial,sans-serif" font-size="11" text-anchor="end">1.0k</text><text class="mut" x="56" y="262" font-family="-apple-system,BlinkMacSystemFont,'Segoe UI',Helvetica,Arial,sans-serif" font-size="11">2026-05-31</text><text class="mut" x="736" y="262" font-family="-apple-system,BlinkMacSystemFont,'Segoe UI',Helvetica,Arial,sans-serif" font-size="11" text-anchor="end">2026-09-29</text><path d="M162.8 241.2 L168.4 241.2 L174.0 236.9 L179.6 233.4 L185.3 231.7 L190.9 231.7 L196.5 229.1 L202.1 227.8 L207.7 226.6 L213.4 226.6 L219.0 225.1 L224.6 224.7 L230.2 223.4 L235.8 221.3 L241.5 221.3 L247.1 220.2 L252.7 219.6 L258.3 212.0 L263.9 211.2 L269.6 210.1 L275.2 210.1 L280.8 209.9 L286.4 208.9 L292.0 208.8 L297.7 205.5 L303.3 204.2 L308.9 203.8 L314.5 203.1 L320.1 203.1 L325.8 202.3 L331.4 201.3 L337.0 200.4 L342.6 200.0 L348.2 199.8 L353.9 199.6 L359.5 199.6 L365.1 199.6 L370.7 199.1 L376.3 198.3 L382.0 197.3 L387.6 196.8 L393.2 196.0 L398.8 195.4 L404.4 195.1 L410.0 194.1 L415.7 193.9 L421.3 192.4 L426.9 192.4 L432.5 192.4 L438.1 191.3 L443.8 191.3 L449.4 190.7 L455.0 190.5 L460.6 189.4 L466.2 189.0 L471.9 189.0 L477.5 188.6 L483.1 187.7 L488.7 186.7 L494.3 186.7 L500.0 186.1 L505.6 184.6 L511.2 184.4 L516.8 184.4 L522.4 184.1 L528.1 183.9 L533.7 183.9 L539.3 181.0 L544.9 181.0 L550.5 178.7 L556.2 172.7 L561.8 172.7 L567.4 172.3 L573.0 172.3 L578.6 170.2 L584.3 170.2 L589.9 165.6 L595.5 165.6 L601.1 163.5 L606.7 157.4 L612.4 154.4 L618.0 150.2 L623.6 145.3 L629.2 141.3 L634.8 137.3 L640.5 133.3 L646.1 131.2 L651.7 128.4 L657.3 125.5 L662.9 121.2 L668.6 116.8 L674.2 112.8 L679.8 107.9 L685.4 103.9 L691.0 102.7 L696.7 99.5 L702.3 94.8 L707.9 90.8 L713.5 85.6 L719.1 78.2 L724.8 71.4 L730.4 68.7 L736.0 62.3" fill="none" stroke="#7c3aed" stroke-width="2" stroke-linejoin="round" stroke-linecap="round"/><circle cx="736.0" cy="62.3" r="3" fill="#7c3aed"/><path d="M578.6 241.2 L584.3 236.5 L589.9 234.4 L595.5 234.4 L601.1 231.4 L606.7 225.8 L612.4 223.8 L618.0 221.7 L623.6 215.0 L629.2 209.7 L634.8 206.7 L640.5 202.1 L646.1 197.3 L651.7 196.4 L657.3 191.8 L662.9 185.4 L668.6 180.8 L674.2 176.3 L679.8 169.0 L685.4 165.6 L691.0 163.2 L696.7 159.5 L702.3 155.2 L707.9 148.1 L713.5 140.2 L719.1 137.1 L724.8 121.3 L730.4 116.0 L736.0 108.1" fill="none" stroke="#0891b2" stroke-width="2" stroke-linejoin="round" stroke-linecap="round"/><circle cx="736.0" cy="108.1" r="3" fill="#0891b2"/><path d="M56.0 241.4 L61.6 240.5 L67.2 239.0 L72.9 237.6 L78.5 236.5 L84.1 235.9 L89.7 235.2 L95.3 234.8 L101.0 234.8 L106.6 234.6 L112.2 233.6 L117.8 232.9 L123.4 232.7 L129.1 232.3 L134.7 231.7 L140.3 231.6 L145.9 231.0 L151.5 231.0 L157.2 230.2 L162.8 228.9 L168.4 228.9 L174.0 227.6 L179.6 227.6 L185.3 227.2 L190.9 227.2 L196.5 226.6 L202.1 226.6 L207.7 225.8 L213.4 225.8 L219.0 225.5 L224.6 225.3 L230.2 225.3 L235.8 224.9 L241.5 224.5 L247.1 223.4 L252.7 220.9 L258.3 220.9 L263.9 214.3 L269.6 214.3 L275.2 213.1 L280.8 211.2 L286.4 211.2 L292.0 210.1 L297.7 209.5 L303.3 208.9 L308.9 207.2 L314.5 207.2 L320.1 205.3 L325.8 204.9 L331.4 204.8 L337.0 204.8 L342.6 204.6 L348.2 204.4 L353.9 203.2 L359.5 202.9 L365.1 201.5 L370.7 200.6 L376.3 200.6 L382.0 200.4 L387.6 200.4 L393.2 200.2 L398.8 199.4 L404.4 198.7 L410.0 197.2 L415.7 197.2 L421.3 196.4 L426.9 196.2 L432.5 196.2 L438.1 194.7 L443.8 194.7 L449.4 194.3 L455.0 194.3 L460.6 194.1 L466.2 193.7 L471.9 193.7 L477.5 193.2 L483.1 193.2 L488.7 191.3 L494.3 191.3 L500.0 190.7 L505.6 189.9 L511.2 188.4 L516.8 188.4 L522.4 187.8 L528.1 187.3 L533.7 186.7 L539.3 186.3 L544.9 186.3 L550.5 185.9 L556.2 185.8 L561.8 185.4 L567.4 185.0 L573.0 185.0 L578.6 185.0 L584.3 184.6 L589.9 183.3 L595.5 183.3 L601.1 183.1 L606.7 182.3 L612.4 181.6 L618.0 181.0 L623.6 179.9 L629.2 178.9 L634.8 178.3 L640.5 176.3 L646.1 176.3 L651.7 176.3 L657.3 174.9 L662.9 172.5 L668.6 171.9 L674.2 171.5 L679.8 170.9 L685.4 170.6 L691.0 170.4 L696.7 170.4 L702.3 170.0 L707.9 169.6 L713.5 169.6 L719.1 169.6 L724.8 169.0 L730.4 168.7 L736.0 168.5" fill="none" stroke="#db2777" stroke-width="2" stroke-linejoin="round" stroke-linecap="round"/><circle cx="736.0" cy="168.5" r="3" fill="#db2777"/><path d="M56.0 240.5 L61.6 240.5 L67.2 238.0 L72.9 237.6 L78.5 236.5 L84.1 236.1 L89.7 236.1 L95.3 236.1 L101.0 236.1 L106.6 236.1 L112.2 234.6 L117.8 234.4 L123.4 233.8 L129.1 233.8 L134.7 233.8 L140.3 233.4 L145.9 233.4 L151.5 233.4 L157.2 232.7 L162.8 232.5 L168.4 232.5 L174.0 231.2 L179.6 230.4 L185.3 229.8 L190.9 229.8 L196.5 229.1 L202.1 228.9 L207.7 228.3 L213.4 228.3 L219.0 228.3 L224.6 228.1 L230.2 228.1 L235.8 228.1 L241.5 228.1 L247.1 227.8 L252.7 227.8 L258.3 222.6 L263.9 220.7 L269.6 220.5 L275.2 220.5 L280.8 220.0 L286.4 220.0 L292.0 219.8 L297.7 219.0 L303.3 218.6 L308.9 218.3 L314.5 218.1 L320.1 218.1 L325.8 217.3 L331.4 216.9 L337.0 216.7 L342.6 216.7 L348.2 216.5 L353.9 216.5 L359.5 216.5 L365.1 215.8 L370.7 215.8 L376.3 215.8 L382.0 215.8 L387.6 215.2 L393.2 215.0 L398.8 214.8 L404.4 214.3 L410.0 214.1 L415.7 214.1 L421.3 214.1 L426.9 214.1 L432.5 213.9 L438.1 213.7 L443.8 213.7 L449.4 213.5 L455.0 213.3 L460.6 213.1 L466.2 212.9 L471.9 212.9 L477.5 212.6 L483.1 212.4 L488.7 212.2 L494.3 212.2 L500.0 212.2 L505.6 212.0 L511.2 211.8 L516.8 211.4 L522.4 211.4 L528.1 211.2 L533.7 211.2 L539.3 211.2 L544.9 210.5 L550.5 210.3 L556.2 210.3 L561.8 210.3 L567.4 210.3 L573.0 210.1 L578.6 209.9 L584.3 209.9 L589.9 209.7 L595.5 209.7 L601.1 209.7 L606.7 209.5 L612.4 209.5 L618.0 209.3 L623.6 209.3 L629.2 209.3 L634.8 208.9 L640.5 208.9 L646.1 208.4 L651.7 208.4 L657.3 208.4 L662.9 208.2 L668.6 207.6 L674.2 207.2 L679.8 207.2 L685.4 207.0 L691.0 206.8 L696.7 206.8 L702.3 206.5 L707.9 206.3 L713.5 206.3 L719.1 206.1 L724.8 206.1 L730.4 206.1 L736.0 205.7" fill="none" stroke="#ea580c" stroke-width="2" stroke-linejoin="round" stroke-linecap="round"/><circle cx="736.0" cy="205.7" r="3" fill="#ea580c"/><path d="M56.0 241.2 L61.6 241.2 L67.2 239.2 L72.9 238.6 L78.5 238.6 L84.1 238.6 L89.7 238.6 L95.3 238.6 L101.0 238.6 L106.6 238.6 L112.2 237.8 L117.8 237.8 L123.4 237.6 L129.1 237.6 L134.7 237.6 L140.3 237.4 L145.9 237.4 L151.5 237.4 L157.2 237.4 L162.8 237.3 L168.4 237.3 L174.0 237.3 L179.6 237.3 L185.3 237.1 L190.9 237.1 L196.5 236.9 L202.1 236.9 L207.7 236.9 L213.4 236.9 L219.0 236.9 L224.6 236.9 L230.2 236.9 L235.8 236.9 L241.5 236.7 L247.1 236.5 L252.7 233.8 L258.3 233.8 L263.9 229.5 L269.6 229.5 L275.2 229.3 L280.8 229.1 L286.4 229.1 L292.0 229.1 L297.7 228.7 L303.3 228.3 L308.9 228.3 L314.5 228.3 L320.1 228.3 L325.8 227.9 L331.4 227.9 L337.0 227.9 L342.6 227.6 L348.2 227.6 L353.9 227.6 L359.5 227.2 L365.1 226.8 L370.7 226.8 L376.3 226.8 L382.0 226.8 L387.6 226.2 L393.2 226.2 L398.8 226.2 L404.4 226.0 L410.0 225.5 L415.7 225.5 L421.3 225.5 L426.9 225.5 L432.5 225.5 L438.1 225.3 L443.8 225.3 L449.4 224.9 L455.0 224.7 L460.6 224.3 L466.2 224.3 L471.9 224.3 L477.5 224.3 L483.1 224.3 L488.7 224.3 L494.3 224.3 L500.0 224.3 L505.6 224.1 L511.2 223.9 L516.8 223.8 L522.4 223.8 L528.1 223.8 L533.7 223.8 L539.3 223.8 L544.9 223.6 L550.5 223.4 L556.2 223.4 L561.8 223.4 L567.4 223.4 L573.0 223.0 L578.6 223.0 L584.3 223.0 L589.9 223.0 L595.5 223.0 L601.1 223.0 L606.7 222.8 L612.4 222.8 L618.0 222.6 L623.6 222.6 L629.2 222.6 L634.8 222.6 L640.5 222.6 L646.1 222.2 L651.7 222.2 L657.3 222.2 L662.9 222.2 L668.6 221.9 L674.2 221.7 L679.8 221.7 L685.4 221.7 L691.0 221.7 L696.7 221.7 L702.3 221.7 L707.9 221.7 L713.5 221.7 L719.1 221.7 L724.8 221.5 L730.4 221.5 L736.0 221.1" fill="none" stroke="#16a34a" stroke-width="2" stroke-linejoin="round" stroke-linecap="round"/><circle cx="736.0" cy="221.1" r="3" fill="#16a34a"/><path d="M522.4 241.6 L528.1 241.6 L533.7 240.1 L539.3 238.4 L544.9 238.4 L550.5 237.8 L556.2 237.6 L561.8 237.3 L567.4 237.3 L573.0 237.3 L578.6 236.1 L584.3 236.1 L589.9 234.4 L595.5 234.4 L601.1 234.0 L606.7 233.8 L612.4 233.6 L618.0 233.1 L623.6 232.3 L629.2 232.1 L634.8 231.2 L640.5 230.4 L646.1 230.0 L651.7 230.0 L657.3 229.7 L662.9 228.9 L668.6 228.1 L674.2 227.9 L679.8 227.6 L685.4 227.4 L691.0 227.2 L696.7 226.8 L702.3 226.2 L707.9 225.5 L713.5 225.1 L719.1 225.1 L724.8 224.9 L730.4 224.5 L736.0 222.6" fill="none" stroke="#4f46e5" stroke-width="2" stroke-linejoin="round" stroke-linecap="round"/><circle cx="736.0" cy="222.6" r="3" fill="#4f46e5"/><rect x="56" y="272" width="10" height="3" rx="1.5" fill="#7c3aed"/><text class="mut" x="71" y="276" font-family="-apple-system,BlinkMacSystemFont,'Segoe UI',Helvetica,Arial,sans-serif" font-size="11">deck-dashboard (946)</text><rect x="209" y="272" width="10" height="3" rx="1.5" fill="#0891b2"/><text class="mut" x="224" y="276" font-family="-apple-system,BlinkMacSystemFont,'Segoe UI',Helvetica,Arial,sans-serif" font-size="11">pptx-studio (705)</text><rect x="343.4" y="272" width="10" height="3" rx="1.5" fill="#db2777"/><text class="mut" x="358.4" y="276" font-family="-apple-system,BlinkMacSystemFont,'Segoe UI',Helvetica,Arial,sans-serif" font-size="11">meeting-detector (387)</text><rect x="508.79999999999995" y="272" width="10" height="3" rx="1.5" fill="#ea580c"/><text class="mut" x="523.8" y="276" font-family="-apple-system,BlinkMacSystemFont,'Segoe UI',Helvetica,Arial,sans-serif" font-size="11">system-recording (191)</text><rect x="56" y="289" width="10" height="3" rx="1.5" fill="#16a34a"/><text class="mut" x="71" y="293" font-family="-apple-system,BlinkMacSystemFont,'Segoe UI',Helvetica,Arial,sans-serif" font-size="11">share-hosted (110)</text><rect x="196.60000000000002" y="289" width="10" height="3" rx="1.5" fill="#4f46e5"/><text class="mut" x="211.60000000000002" y="293" font-family="-apple-system,BlinkMacSystemFont,'Segoe UI',Helvetica,Arial,sans-serif" font-size="11">flint-chart (102)</text></svg>